<svg id="Layer_1" data-name="Layer 1" xmlns="http://www.w3.org/2000/svg" xmlns:xlink="http://www.w3.org/1999/xlink" viewBox="0 0 93.44 131.08"><defs><style>.cls-1{fill:url(#Blue);}.cls-2{fill:url(#Blue-2);}.cls-3{fill:url(#Green);}.cls-4{fill:url(#Green-2);}.cls-5{fill:#3bbc7e;}</style><linearGradient id="Blue" y1="32.24" x2="42.56" y2="32.24" gradientUnits="userSpaceOnUse"><stop offset="0" stop-color="#2bc4f3"/><stop offset="0.5" stop-color="#00aeee"/><stop offset="1" stop-color="#0095da"/></linearGradient><linearGradient id="Blue-2" x1="68.97" y1="27.67" x2="74.11" y2="66.7" xlink:href="#Blue"/><linearGradient id="Green" x1="40.78" y1="21.49" x2="78.06" y2="21.49" gradientUnits="userSpaceOnUse"><stop offset="0" stop-color="#64c08a"/><stop offset="0.5" stop-color="#00a550"/><stop offset="1" stop-color="#00914c"/></linearGradient><linearGradient id="Green-2" x1="14.27" y1="71.63" x2="51.27" y2="71.63" xlink:href="#Green"/></defs><title>bing air</title><path class="cls-1" d="M42.56,45S28,2.15,12,17.19s-16.1,34,0,33.28A128.39,128.39,0,0,0,42.56,45Z" transform="translate(0 0)"/><path class="cls-2" d="M51.13,50.15S63.88,93.58,80.46,79.23,98,46,81.88,46A128.82,128.82,0,0,0,51.13,50.15Z" transform="translate(0 0)"/><path class="cls-3" d="M49.74,43s41-19.15,24.33-33.38S38.56-2.72,41,13.21A128.72,128.72,0,0,0,49.74,43Z" transform="translate(0 0)"/><path class="cls-4" d="M43.68,50.21S1.89,67.59,18,82.52s35,13.82,33.21-2.2A128.69,128.69,0,0,0,43.68,50.21Z" transform="translate(0 0)"/><path class="cls-5" d="M.48,104a25.94,25.94,0,0,1,4.93-.44c2.7,0,4.44.47,5.74,1.52a4.38,4.38,0,0,1,1.74,3.69,5,5,0,0,1-3.54,4.59v.07a5.39,5.39,0,0,1,4.31,5.24,5.63,5.63,0,0,1-1.77,4.19c-1.45,1.33-3.81,2-7.22,2a30.43,30.43,0,0,1-4.19-.25Zm2.7,8.56H5.63c2.85,0,4.53-1.49,4.53-3.51,0-2.45-1.87-3.41-4.59-3.41a10.92,10.92,0,0,0-2.39.19Zm0,10a14.79,14.79,0,0,0,2.26.12c2.79,0,5.37-1,5.37-4.06,0-2.86-2.45-4-5.4-4H3.18Z" transform="translate(0 0)"/><path class="cls-5" d="M20.24,105.36a1.69,1.69,0,0,1-3.38,0,1.66,1.66,0,0,1,1.7-1.7A1.62,1.62,0,0,1,20.24,105.36Zm-3,19.23v-15h2.73v15Z" transform="translate(0 0)"/><path class="cls-5" d="M24.46,113.64c0-1.55,0-2.82-.13-4.06h2.42l.16,2.48H27a5.5,5.5,0,0,1,5-2.82c2.08,0,5.31,1.24,5.31,6.39v9H34.51v-8.65c0-2.42-.9-4.44-3.48-4.44a3.89,3.89,0,0,0-3.66,2.8,4,4,0,0,0-.18,1.27v9H24.46Z" transform="translate(0 0)"/><path class="cls-5" d="M54.61,109.58c-.06,1.09-.12,2.3-.12,4.13v8.71c0,3.45-.69,5.56-2.15,6.86a8,8,0,0,1-5.45,1.8,9.77,9.77,0,0,1-5-1.24l.68-2.08A8.51,8.51,0,0,0,47,128.94c2.79,0,4.84-1.46,4.84-5.24V122h-.06A5.37,5.37,0,0,1,47,124.53c-3.72,0-6.39-3.16-6.39-7.32,0-5.09,3.32-8,6.76-8a5,5,0,0,1,4.69,2.6h.06l.12-2.26Zm-2.82,5.92a3.77,3.77,0,0,0-.16-1.24,3.93,3.93,0,0,0-3.81-2.88c-2.61,0-4.47,2.2-4.47,5.68,0,2.94,1.49,5.39,4.44,5.39a4,4,0,0,0,3.78-2.79,4.88,4.88,0,0,0,.22-1.46Z" transform="translate(0 0)"/><path class="cls-5" d="M62.49,118l-2.17,6.57H57.53l7.1-20.9h3.26L75,124.59H72.14L69.9,118Zm6.85-2.11-2-6c-.47-1.36-.78-2.6-1.09-3.81h-.06c-.31,1.24-.65,2.51-1.06,3.78l-2,6Z" transform="translate(0 0)"/><path class="cls-5" d="M81,105.36a1.69,1.69,0,0,1-3.38,0,1.66,1.66,0,0,1,1.7-1.7A1.62,1.62,0,0,1,81,105.36Zm-3,19.23v-15h2.73v15Z" transform="translate(0 0)"/><path class="cls-5" d="M85.17,114.26c0-1.76,0-3.28-.13-4.68h2.39l.09,3h.13a4.49,4.49,0,0,1,4.15-3.29,3.1,3.1,0,0,1,.78.09v2.58a3.68,3.68,0,0,0-.93-.1c-1.92,0-3.29,1.46-3.66,3.51a7.88,7.88,0,0,0-.13,1.27v8H85.17Z" transform="translate(0 0)"/></svg>