<svg id="Layer_1" data-name="Layer 1" xmlns="http://www.w3.org/2000/svg" xmlns:xlink="http://www.w3.org/1999/xlink" viewBox="0 0 78.94 15.72"><defs><style>.cls-1{fill:url(#linear-gradient);}.cls-2{fill:#fff;}.cls-3{fill:#27b7d8;}</style><linearGradient id="linear-gradient" y1="7.86" x2="31.59" y2="7.86" gradientUnits="userSpaceOnUse"><stop offset="0" stop-color="#2484c6"/><stop offset="1" stop-color="#24c8c6"/></linearGradient></defs><title>bmp company</title><path class="cls-1" d="M31.59,7.86a7.86,7.86,0,0,1-7.86,7.86H7.86A7.86,7.86,0,0,1,0,7.86H0A7.86,7.86,0,0,1,7.86,0H23.73a7.86,7.86,0,0,1,7.86,7.86Z"/><path class="cls-2" d="M9.57,3.67c1.44,0,2.28.74,2.28,2.07A1.79,1.79,0,0,1,11,7.42v0a1.79,1.79,0,0,1,1.13,1.92c0,1.36-1,2.16-2.5,2.16H6.5c-.28,0-.39-.1-.39-.37V4c0-.27.11-.37.39-.37ZM9.41,6.92c.67,0,1-.32,1-1s-.35-1-1-1H7.51v2Zm.2,1.27H7.51v2.06h2.1a.92.92,0,0,0,1.05-1A.92.92,0,0,0,9.61,8.19Z"/><path class="cls-2" d="M20.41,3.67c.28,0,.38.1.38.37v7.14c0,.27-.1.37-.38.37h-.57c-.27,0-.37-.1-.37-.37V7.79a10.16,10.16,0,0,1,.26-2.21h-.08a12.16,12.16,0,0,1-.91,2L17.65,9.53a.49.49,0,0,1-.43.27h-.35c-.24,0-.31-.05-.44-.27L15.32,7.6a9.37,9.37,0,0,1-.85-2h-.08a11.39,11.39,0,0,1,.23,2.22v3.38c0,.27-.1.37-.38.37h-.53c-.28,0-.39-.1-.39-.37V4c0-.27.11-.37.39-.37h.49c.31,0,.41.05.53.29L17,8.09,19.35,4c.14-.26.22-.3.52-.3Z"/><path class="cls-2" d="M25.66,3.67a2.4,2.4,0,0,1,2.62,2.57,2.4,2.4,0,0,1-2.62,2.57H23.73v2.37c0,.27-.1.37-.38.37h-.64c-.27,0-.38-.1-.38-.37V4c0-.27.11-.37.38-.37Zm-.14,3.84a1.17,1.17,0,0,0,1.29-1.27A1.17,1.17,0,0,0,25.52,5H23.73V7.51Z"/><path class="cls-3" d="M40.21,9.49l-.35-.14a.21.21,0,0,0-.28.15A2,2,0,0,1,37.36,11c-1.43,0-2.23-.75-2.23-2V6.29c0-1.29.78-2,2.23-2a1.94,1.94,0,0,1,2.19,1.44.23.23,0,0,0,.29.13l.35-.12c.16-.06.19-.12.13-.29-.4-1.28-1.3-1.9-3-1.9-2,0-3,1-3,2.79V8.92c0,1.74,1.1,2.79,3,2.79,1.68,0,2.58-.66,3-1.94A.2.2,0,0,0,40.21,9.49Z"/><path class="cls-3" d="M43.74,5.68c-1.51,0-2.44.76-2.44,2v2c0,1.25.93,2,2.44,2s2.45-.76,2.45-2v-2C46.19,6.44,45.26,5.68,43.74,5.68Zm1.7,4c0,.84-.65,1.35-1.7,1.35s-1.69-.51-1.69-1.35v-2c0-.84.65-1.37,1.69-1.37s1.7.53,1.7,1.37Z"/><path class="cls-3" d="M53.09,5.68a4.78,4.78,0,0,0-2,.47,2,2,0,0,0-1.44-.47A4.49,4.49,0,0,0,47.86,6a.59.59,0,0,0-.42.64v4.68a.18.18,0,0,0,.2.2H48a.18.18,0,0,0,.2-.2V6.89a.28.28,0,0,1,.18-.3,2.86,2.86,0,0,1,1.16-.22c1,0,1.41.48,1.41,1.45v3.53c0,.15.06.2.2.2h.35c.16,0,.2-.05.2-.2V7.79a2.34,2.34,0,0,0-.21-1A3.21,3.21,0,0,1,53,6.37c.92,0,1.37.48,1.37,1.45v3.53c0,.15.06.2.2.2h.35c.17,0,.2-.05.2-.2V7.79C55.12,6.38,54.44,5.68,53.09,5.68Z"/><path class="cls-3" d="M58.9,5.68A5.32,5.32,0,0,0,57,6c-.36.14-.45.27-.45.62V13.8a.18.18,0,0,0,.2.2h.36a.18.18,0,0,0,.2-.2V11.33a4.44,4.44,0,0,0,1.66.38c1.53,0,2.28-.73,2.28-2.21V7.9Q61.21,5.68,58.9,5.68Zm1.57,3.8A1.39,1.39,0,0,1,58.88,11a3.7,3.7,0,0,1-1.61-.39V6.88c0-.18,0-.23.21-.3a3.68,3.68,0,0,1,1.33-.21c1.1,0,1.66.52,1.66,1.55Z"/><path class="cls-3" d="M64.6,5.68a2.32,2.32,0,0,0-2.24,1.16c-.06.15,0,.24.11.29l.27.11c.1.06.2,0,.28-.09a1.63,1.63,0,0,1,1.55-.81c1.13,0,1.5.56,1.5,1.53v.51a13,13,0,0,0-1.45-.11c-1.77,0-2.45.46-2.45,1.72a1.58,1.58,0,0,0,.51,1.3,3,3,0,0,0,1.89.42,4.84,4.84,0,0,0,1.85-.29c.31-.13.4-.24.4-.63V7.88A1.93,1.93,0,0,0,64.6,5.68Zm1.47,4.91c0,.21,0,.24-.21.32a4,4,0,0,1-1.34.18c-1.24,0-1.58-.36-1.58-1.11s.43-1.09,1.6-1.09a15.25,15.25,0,0,1,1.53.1Z"/><path class="cls-3" d="M70.65,5.68a5.42,5.42,0,0,0-2.07.37c-.34.15-.42.27-.42.62v4.68c0,.14.06.2.2.2h.35c.14,0,.2-.06.2-.2V6.89a.29.29,0,0,1,.17-.28,4.22,4.22,0,0,1,1.48-.24,1.35,1.35,0,0,1,1.55,1.51v3.47c0,.15.06.2.2.2h.35a.18.18,0,0,0,.2-.2V7.85A1.94,1.94,0,0,0,70.65,5.68Z"/><path class="cls-3" d="M78.74,5.84h-.35a.18.18,0,0,0-.21.2v4.55a5.4,5.4,0,0,1-1.64.3A1.36,1.36,0,0,1,75,9.36V6c0-.14,0-.2-.2-.2h-.35c-.14,0-.2.06-.2.2V9.4a1.93,1.93,0,0,0,2.2,2.16,6.66,6.66,0,0,0,1.74-.28v.65c0,1.12-.54,1.69-1.62,1.69A1.63,1.63,0,0,1,75,12.73a.21.21,0,0,0-.32-.08l-.25.12a.21.21,0,0,0-.08.34,2.32,2.32,0,0,0,2.21,1.19,2.11,2.11,0,0,0,2.37-2.4V6A.18.18,0,0,0,78.74,5.84Z"/></svg>