<svg id="Layer_1" data-name="Layer 1" xmlns="http://www.w3.org/2000/svg" xmlns:xlink="http://www.w3.org/1999/xlink" viewBox="0 0 244.96 109.83"><defs><style>.cls-1{fill:url(#New_Gradient_Swatch_19);}.cls-2{fill:url(#New_Gradient_Swatch_19-2);}.cls-3{fill:url(#New_Gradient_Swatch_19-3);}.cls-4{fill:url(#New_Gradient_Swatch_19-4);}.cls-5{fill:url(#New_Gradient_Swatch_19-5);}</style><linearGradient id="New_Gradient_Swatch_19" x1="31.91" y1="11.91" x2="98.69" y2="11.91" gradientUnits="userSpaceOnUse"><stop offset="0" stop-color="#86d0d9"/><stop offset="0.24" stop-color="#74c6cf"/><stop offset="0.72" stop-color="#47acb6"/><stop offset="1" stop-color="#299ba6"/></linearGradient><linearGradient id="New_Gradient_Swatch_19-2" x1="57.98" y1="64.83" x2="109.15" y2="64.83" xlink:href="#New_Gradient_Swatch_19"/><linearGradient id="New_Gradient_Swatch_19-3" x1="0.2" y1="83.2" x2="36.14" y2="83.2" xlink:href="#New_Gradient_Swatch_19"/><linearGradient id="New_Gradient_Swatch_19-4" x1="25.81" y1="82.52" x2="89.89" y2="82.52" xlink:href="#New_Gradient_Swatch_19"/><linearGradient id="New_Gradient_Swatch_19-5" x1="0" y1="41.77" x2="72.83" y2="41.77" xlink:href="#New_Gradient_Swatch_19"/></defs><title>one air</title><path class="cls-1" d="M97.71,21.84A54.55,54.55,0,0,0,31.91,5.61c1.12-.07,2.26-.11,3.4-.11a54.35,54.35,0,0,1,37.52,15,55.18,55.18,0,0,1,7.43-.52,54.43,54.43,0,0,1,17.53,2.9l.9.3C98.37,22.7,98.05,22.27,97.71,21.84Z" transform="translate(0 0)"/><path class="cls-2" d="M98.69,23.14l-.9-.3a54.43,54.43,0,0,0-17.53-2.9,55.18,55.18,0,0,0-7.43.52A54.35,54.35,0,0,1,89.66,55.21c.14,1.6.23,3.22.23,4.86A54.58,54.58,0,0,1,58,109.71,54.55,54.55,0,0,0,98.69,23.14Z" transform="translate(0 0)"/><path class="cls-3" d="M.2,59.77a54.6,54.6,0,0,0,35.94,46.86A54.29,54.29,0,0,1,25.81,78,54.65,54.65,0,0,1,.2,59.77Z" transform="translate(0 0)"/><path class="cls-4" d="M89.89,60.07c0-1.64-.09-3.26-.23-4.86A54.53,54.53,0,0,1,25.81,78a54.29,54.29,0,0,0,10.33,28.59,54.38,54.38,0,0,0,18.44,3.2c1.14,0,2.27,0,3.4-.12A54.58,54.58,0,0,0,89.89,60.07Z" transform="translate(0 0)"/><path class="cls-5" d="M25.81,78c-.08-1.16-.13-2.34-.13-3.52A54.57,54.57,0,0,1,72.83,20.46a54.35,54.35,0,0,0-37.52-15c-1.14,0-2.28,0-3.4.11A54.58,54.58,0,0,0,0,55.26c0,1.52.08,3,.2,4.51A54.65,54.65,0,0,0,25.81,78Z" transform="translate(0 0)"/><path d="M132.66,15.16c0-9.5,5.9-15.16,16.59-15.16s16.47,5.66,16.47,15.16V30.7c0,9.51-5.84,15.17-16.47,15.17s-16.59-5.66-16.59-15.17Zm31.2.07c0-8.52-5.22-13.55-14.61-13.55s-14.79,5-14.79,13.55V30.64c0,8.51,5.28,13.55,14.79,13.55s14.61-5,14.61-13.55Z" transform="translate(0 0)"/><path d="M206.55.87a.46.46,0,0,1,.5.5V44.5a.46.46,0,0,1-.5.5h-.8a.78.78,0,0,1-.63-.38L181.63,11.31c-.56-.87-1.43-2.17-2.55-3.91s-2-3-2.48-3.67h-.06c0,.81.06,2.36.12,4.6s.06,4,.06,5.16v31a.45.45,0,0,1-.49.5h-.81a.46.46,0,0,1-.5-.5V1.37a.46.46,0,0,1,.5-.5h.74a.7.7,0,0,1,.63.31l22.8,32.38c.62.87,1.62,2.3,2.92,4.23s2.24,3.42,2.86,4.29h.13c0-.94-.06-2.68-.13-5.16s-.12-4.35-.12-5.72V1.31c0-.32.19-.44.5-.44Z" transform="translate(0 0)"/><path d="M243.6.87a.45.45,0,0,1,.49.5v.68a.45.45,0,0,1-.49.5H219.36v19.2h21.56a.46.46,0,0,1,.5.5V23a.45.45,0,0,1-.5.49H219.36V43.32h25.11a.45.45,0,0,1,.49.5v.68a.45.45,0,0,1-.49.5H218.05a.45.45,0,0,1-.49-.5V1.37a.45.45,0,0,1,.49-.5Z" transform="translate(0 0)"/><path d="M167.09,106.65c.12.31,0,.5-.38.5H166c-.44,0-.75-.13-.87-.44l-6-15H137.69l-6,15c-.12.31-.43.44-.93.44h-.62c-.37,0-.5-.19-.37-.5l17.59-43.44a.72.72,0,0,1,.68-.5h.74a.7.7,0,0,1,.75.44Zm-18.27-40.4a7.77,7.77,0,0,1-.44-1.67h-.06a8.82,8.82,0,0,1-.37,1.67l-9.7,23.93h20.26Z" transform="translate(0 0)"/><path d="M186.42,63.52a.46.46,0,0,1,.5-.5h.8a.46.46,0,0,1,.5.5v43.13a.46.46,0,0,1-.5.5h-.8a.46.46,0,0,1-.5-.5Z" transform="translate(0 0)"/><path d="M230.67,63C238.44,63,243,67.5,243,75.2c0,7.21-4.41,11.56-11.56,11.87a10.94,10.94,0,0,1,5.78,5.6l7,13.92c.19.37.13.56-.31.56h-.75a1.16,1.16,0,0,1-1-.44l-6.65-13.23c-2.24-4.48-4.85-6.22-10.07-6.22H214v19.39a.45.45,0,0,1-.49.5h-.81a.46.46,0,0,1-.5-.5V63.52a.46.46,0,0,1,.5-.5Zm-.19,1.68H214V85.52h16.47c6.72,0,10.63-3.67,10.63-10.32S237.26,64.7,230.48,64.7Z" transform="translate(0 0)"/></svg>