<svg id="Layer_1" data-name="Layer 1" xmlns="http://www.w3.org/2000/svg" xmlns:xlink="http://www.w3.org/1999/xlink" viewBox="0 0 198.65 95.79"><defs><style>.cls-1{fill:url(#Hot_Pink);}.cls-2{fill:url(#Hot_Pink-2);}.cls-3{fill:url(#Hot_Pink-3);}.cls-4{fill:url(#Hot_Pink-4);}.cls-5{fill:url(#Hot_Pink-5);}.cls-6{fill:url(#Hot_Pink-6);}.cls-7{fill:url(#Hot_Pink-7);}</style><linearGradient id="Hot_Pink" x1="48.26" y1="81.08" x2="3.58" y2="50.27" gradientUnits="userSpaceOnUse"><stop offset="0" stop-color="#f074ac"/><stop offset="0.5" stop-color="#eb008b"/><stop offset="1" stop-color="#cd118c"/></linearGradient><linearGradient id="Hot_Pink-2" x1="41" y1="90.94" x2="-3.15" y2="60.5" xlink:href="#Hot_Pink"/><linearGradient id="Hot_Pink-3" x1="74.24" y1="42.9" x2="30.57" y2="12.78" xlink:href="#Hot_Pink"/><linearGradient id="Hot_Pink-4" x1="81.58" y1="2.89" x2="-24.67" y2="123.67" xlink:href="#Hot_Pink"/><linearGradient id="Hot_Pink-5" x1="61.44" y1="-14.99" x2="-44.16" y2="105.05" xlink:href="#Hot_Pink"/><linearGradient id="Hot_Pink-6" x1="102.3" y1="21.27" x2="-3.53" y2="141.57" xlink:href="#Hot_Pink"/><linearGradient id="Hot_Pink-7" x1="81.04" y1="31.8" x2="37.42" y2="1.72" xlink:href="#Hot_Pink"/></defs><title>Siberia</title><polygon class="cls-1" points="14.25 71.8 0 48.8 21.98 48.8 37.25 71.8 14.25 71.8"/><polygon class="cls-2" points="30.13 95.8 20.76 79.8 42.74 79.8 53.13 95.8 30.13 95.8"/><polygon class="cls-3" points="62.39 47.8 46.41 25.8 68.39 25.8 84.88 47.8 62.39 47.8"/><polygon class="cls-4" points="46.26 24.32 14.25 71.8 37.44 71.8 57.78 40.75 46.26 24.32"/><polygon class="cls-5" points="31.6 0 0 48.8 21.98 48.8 41.63 17.07 31.6 0"/><polygon class="cls-6" points="62.39 47.8 30.13 95.8 53.31 95.8 84.88 47.8 62.39 47.8"/><polygon class="cls-7" points="41.63 16.8 31.75 0.8 53.73 0.8 64.12 16.8 41.63 16.8"/><path d="M102.1,64.48a10.18,10.18,0,0,1-4.11.73c-4.38,0-7.68-2.77-7.68-7.86a7.74,7.74,0,0,1,8.12-8.17,8.28,8.28,0,0,1,3.69.69l-.49,1.64a7.26,7.26,0,0,0-3.13-.65c-3.65,0-6.07,2.33-6.07,6.42,0,3.8,2.19,6.25,6,6.25a8.07,8.07,0,0,0,3.28-.65Z" transform="translate(0 0)"/><path d="M106.41,53.82v4.7c0,1.78,0,2.89-.11,4.48l.07,0c.67-1.36,1.06-2.14,1.8-3.44l3.48-5.76H114V65h-1.94V60.25c0-1.82,0-2.77.14-4.57h-.07c-.72,1.44-1.2,2.34-1.85,3.47C109.25,60.88,108,63,106.83,65H104.5V53.82Z" transform="translate(0 0)"/><path d="M125.77,50a15.25,15.25,0,0,1-2.33.51,5.51,5.51,0,0,0-4,2.1,8,8,0,0,0-1.22,3.69h.07a4.23,4.23,0,0,1,3.88-2.51c2.74,0,4.75,2,4.75,5.51s-1.89,5.91-5.17,5.91c-3.92,0-5.21-3.76-5.21-7.48a9.91,9.91,0,0,1,1.73-6.18c1.08-1.55,2.63-2.26,4.8-2.63a16.31,16.31,0,0,0,2.77-.6Zm-4,5.29a2.7,2.7,0,0,0-2.51,1.52,4.86,4.86,0,0,0-.56,2.37c0,1.85.9,4.5,3.12,4.5s3.07-2.17,3.07-4.22C124.9,57.67,124.18,55.32,121.78,55.32Z" transform="translate(0 0)"/><path d="M131.38,53.82v4.7c0,1.78,0,2.89-.11,4.48l.07,0c.66-1.36,1.06-2.14,1.8-3.44l3.48-5.76H139V65h-1.94V60.25c0-1.82,0-2.77.14-4.57h-.07c-.72,1.44-1.2,2.34-1.85,3.47C134.22,60.88,133,63,131.8,65h-2.33V53.82Z" transform="translate(0 0)"/><path d="M142.3,57.46c0-1.43-.05-2.58-.09-3.64H144l.09,1.91h0a4.38,4.38,0,0,1,4-2.17c2.7,0,4.73,2.29,4.73,5.68,0,4-2.44,6-5.07,6a3.92,3.92,0,0,1-3.44-1.76h0v6.07h-2Zm2,3a4.29,4.29,0,0,0,.1.83,3.12,3.12,0,0,0,3,2.37c2.15,0,3.39-1.75,3.39-4.31,0-2.24-1.17-4.15-3.32-4.15a3.24,3.24,0,0,0-3.07,2.51,3.35,3.35,0,0,0-.14.83Z" transform="translate(0 0)"/><path d="M163.39,64.57a7.62,7.62,0,0,1-3.21.64c-3.37,0-5.56-2.28-5.56-5.7a5.67,5.67,0,0,1,6-5.92,6.87,6.87,0,0,1,2.81.57L163,55.73a4.64,4.64,0,0,0-2.35-.53c-2.56,0-4,1.89-4,4.22a3.83,3.83,0,0,0,3.88,4.18A5.68,5.68,0,0,0,163,63Z" transform="translate(0 0)"/><path d="M167.77,53.82v4.84h.49l4.2-4.84h2.47l-4.87,5c1.8.18,2.88,1.38,3.76,3.39A23,23,0,0,0,175,65H172.9a14.12,14.12,0,0,1-1-2.28c-.76-1.8-1.8-2.63-3.69-2.63h-.4V65h-2V53.82Z" transform="translate(0 0)"/><path d="M178.69,53.82v4.7c0,1.78,0,2.89-.12,4.48l.07,0c.67-1.36,1.06-2.14,1.8-3.44l3.49-5.76h2.37V65h-1.94V60.25c0-1.82,0-2.77.14-4.57h-.07c-.71,1.44-1.2,2.34-1.84,3.47C181.53,60.88,180.3,63,179.1,65h-2.33V53.82Z" transform="translate(0 0)"/><path d="M190.73,59.77a3.58,3.58,0,0,0,3.83,3.87,7.46,7.46,0,0,0,3.1-.57l.34,1.45a9.08,9.08,0,0,1-3.71.69c-3.44,0-5.49-2.26-5.49-5.63s2-6,5.23-6c3.65,0,4.62,3.21,4.62,5.26a8.33,8.33,0,0,1-.07,1Zm6-1.46c0-1.29-.53-3.29-2.82-3.29-2.05,0-3,1.89-3.11,3.29Z" transform="translate(0 0)"/><path d="M97.34,92.68l-.16-1.41h-.07a4.17,4.17,0,0,1-3.41,1.66,3.19,3.19,0,0,1-3.42-3.21c0-2.7,2.4-4.17,6.72-4.15v-.23a2.31,2.31,0,0,0-2.54-2.59,5.57,5.57,0,0,0-2.91.84l-.46-1.34a6.92,6.92,0,0,1,3.67-1c3.41,0,4.24,2.33,4.24,4.56V90a15.63,15.63,0,0,0,.19,2.68ZM97,87c-2.21,0-4.73.34-4.73,2.51a1.8,1.8,0,0,0,1.92,1.94,2.79,2.79,0,0,0,2.7-1.87,2.11,2.11,0,0,0,.11-.65Z" transform="translate(0 0)"/><path d="M102.24,81.65a23.33,23.33,0,0,1,3.55-.26c1.87,0,5,.3,5,2.8a2.64,2.64,0,0,1-2.33,2.51v0c1.64.23,2.84,1.15,2.84,2.76,0,2.94-3.69,3.3-5.89,3.3-1.24,0-2.53-.09-3.13-.13Zm1.91,9.69a12.2,12.2,0,0,0,1.64.09c1.36,0,3.39-.32,3.39-1.94s-1.61-2-3.55-2h-1.48Zm0-5.15h1.53c1.5,0,3-.44,3-1.75,0-1.11-1-1.64-3-1.64-.67,0-1.08,0-1.57.09Z" transform="translate(0 0)"/><path d="M115.69,81.51v4.7c0,1.78,0,2.89-.12,4.48l.07,0c.67-1.36,1.07-2.14,1.8-3.43l3.49-5.77h2.37V92.68h-1.93V88c0-1.83,0-2.77.13-4.57h-.07c-.71,1.43-1.2,2.33-1.84,3.46-1.06,1.73-2.29,3.87-3.49,5.84h-2.33V81.51Z" transform="translate(0 0)"/><path d="M132.79,92.68l-.16-1.41h-.07a4.17,4.17,0,0,1-3.42,1.66,3.18,3.18,0,0,1-3.41-3.21c0-2.7,2.4-4.17,6.71-4.15v-.23a2.3,2.3,0,0,0-2.53-2.59,5.54,5.54,0,0,0-2.91.84l-.46-1.34a6.92,6.92,0,0,1,3.67-1c3.41,0,4.24,2.33,4.24,4.56V90a16.78,16.78,0,0,0,.18,2.68Zm-.3-5.7c-2.22,0-4.73.34-4.73,2.51a1.8,1.8,0,0,0,1.91,1.94,2.77,2.77,0,0,0,2.7-1.87,2.13,2.13,0,0,0,.12-.65Z" transform="translate(0 0)"/><path d="M146.24,81.51V92.68h-2V83.1H140.4V86c0,3.13-.3,5.23-1.75,6.18a3.25,3.25,0,0,1-2.21.69l-.21-1.59a2.57,2.57,0,0,0,1.11-.46c1-.76,1.15-2.33,1.15-4.82v-4.5Z" transform="translate(0 0)"/><path d="M151.44,81.51v4.7c0,1.78,0,2.89-.12,4.48l.07,0c.67-1.36,1.06-2.14,1.8-3.43l3.48-5.77h2.38V92.68h-1.94V88c0-1.83,0-2.77.14-4.57h-.07c-.71,1.43-1.2,2.33-1.85,3.46-1.06,1.73-2.28,3.87-3.48,5.84h-2.33V81.51Z" transform="translate(0 0)"/><path d="M164.31,81.51V86h5.31v-4.5h2V92.68h-2V87.62h-5.31v5.06h-2V81.51Z" transform="translate(0 0)"/><path d="M176.82,81.51v4.7c0,1.78,0,2.89-.12,4.48l.07,0c.67-1.36,1.06-2.14,1.8-3.43l3.49-5.77h2.37V92.68H182.5V88c0-1.83,0-2.77.13-4.57h-.07c-.71,1.43-1.2,2.33-1.84,3.46-1.06,1.73-2.29,3.87-3.48,5.84H174.9V81.51Z" transform="translate(0 0)"/><path d="M189.6,81.51v4.7c0,1.78,0,2.89-.11,4.48l.07,0c.67-1.36,1.06-2.14,1.8-3.43l3.48-5.77h2.38V92.68h-1.94V88c0-1.83.05-2.77.14-4.57h-.07c-.72,1.43-1.2,2.33-1.85,3.46-1.06,1.73-2.28,3.87-3.48,5.84h-2.33V81.51Z" transform="translate(0 0)"/></svg>