<svg id="Layer_1" data-name="Layer 1" xmlns="http://www.w3.org/2000/svg" viewBox="0 0 215.6 87.63"><defs><style>.cls-1{fill:#c82427;}.cls-2{fill:#231f20;}</style></defs><title>tetra install</title><path class="cls-1" d="M115,67.94l-4.82-2.28c-.24-.11-.4-.31-.34-.45a.83.83,0,0,1,.56-.35l3.37-.69a.54.54,0,0,0,.46-.47.46.46,0,0,0-.5-.36H105.2a.64.64,0,0,1-.6-.42.58.58,0,0,1,.31-.64l8-4.37a.62.62,0,0,0,.29-.7,1,1,0,0,1,0-.16.57.57,0,0,0-.63-.38L102.1,58.56c-.27,0-.31,0-.1-.21l6.93-5.49a.39.39,0,1,0-.41-.63l-7.7,4c-.24.13-.46.18-.5.11s.09-.27.27-.47c1.77-1.87,3.55-3.74,5.32-5.62a.56.56,0,0,0,.11-.66.47.47,0,0,0-.63,0l-4.45,3.1c-.22.16-.45.25-.51.2s0-.26.16-.48L102.9,49a.53.53,0,0,0-.11-.7l-.07,0a.62.62,0,0,0-.75,0L98.4,51.5c-.2.18-.27.13-.17-.12.54-1.19.93-2.08,1.31-2.92a.45.45,0,1,0-.72-.52c-.59.57-1.19,1.12-1.75,1.72-2.47,2.66-5,5.32-7.37,8.05a4.23,4.23,0,0,1-4.13,1.39c-1.76-.23-3.54-.3-5.52-.43-.26,0-.31-.17-.12-.37.61-.62.74-1.18-.19-1.39-.26-.06-.35-.25-.2-.47a23.75,23.75,0,0,0,2.78-5A26.54,26.54,0,0,0,84,42.12a62.92,62.92,0,0,0-.58-8.45c-.29-2.68-.25-5.57-1.31-7.93-1.31-2.91-.39-5.72-.88-8.45C81,16,82.08,14,80.16,13c-.25-.15.16-1.43.12-2.53,0-.27-.18-.31-.34-.08L78.7,12.09c-.16.22-.41.35-.55.29s-.2-.31-.11-.57l1-3.06c.09-.25.07-.5,0-.55s-.31.1-.45.33c-1.35,2.4-2.72,4.79-4.08,7.18-.13.24-.36.38-.52.33s-.23-.3-.15-.56c.86-2.9,1.73-5.79,2.6-8.69.07-.26.07-.49,0-.52s-.23.15-.32.4c-.79,2.09-1.59,4.17-2.39,6.26-.09.25-.12.25-.06,0A35.67,35.67,0,0,0,74.37,1.6c-.06-.61-1-.62-1,0a35.14,35.14,0,0,1-1.77,14.84c-.09.25-.1.25,0,0a27.35,27.35,0,0,0,.93-8c0-1,0-2-.12-3.07a.53.53,0,0,0-.06-.19,2.11,2.11,0,0,1-.22-.64A29,29,0,0,0,71,.33.48.48,0,0,0,70.48,0a.76.76,0,0,0-.39.24s0,0,0,0a1.49,1.49,0,0,1,0,.19.35.35,0,0,0,0,.13l.06.18c0,.1.08.32.12.48a2.86,2.86,0,0,0,.07.28A25.15,25.15,0,0,1,71,13.59a1.42,1.42,0,0,1,0,.2c0,.1,0,0,0-.3a21.62,21.62,0,0,0-3.17-12C67.46,1,66.62,1.44,67,2a20.65,20.65,0,0,1,3,11.41c0,.27-.09.28-.17,0a15.69,15.69,0,0,0-.77-1.85,6.26,6.26,0,0,1-.38-.89,26.91,26.91,0,0,0-3.3-6.53c-.35-.51-1.19,0-.84.49a25.3,25.3,0,0,1,2,3.43,2.6,2.6,0,0,1,.19.44.63.63,0,0,0-.36.33.47.47,0,0,0,.08.51l.28.35a4.46,4.46,0,0,1,.48.8,19.12,19.12,0,0,1,1.67,9.31c0,.27,0,.27-.07,0a22.6,22.6,0,0,0-2.07-8.3c-.27-.57-1.1-.08-.84.48A21.23,21.23,0,0,1,67.66,23.9a7.54,7.54,0,0,1-.22.94C65.16,32.18,63.57,39.69,61.11,47c-1.39,4.1-2.53,8.22-5,12-4.3,6.41-12.76,8.48-19.19,4.1-4.35-3-8.73-2.44-11.53,1.59a2.71,2.71,0,0,1-.68.67l-1.59,1-.06,0a.66.66,0,0,0-.34.42.52.52,0,0,0,.47.59l3.9.31a3.22,3.22,0,0,1,.92.25l5.62,2.67a.31.31,0,0,1,.08.55c-2.19,1.81-4.88-.69-7,.79a.81.81,0,0,0-.27.78c.1.39.2.84.33,1.37a.34.34,0,0,1-.37.44c-2.71-.24-5.31-.56-7.92-.6-1.22,0-2.44.72-3.68,1a10.67,10.67,0,0,1-2.59.09c-1.7-.08-3.39-.22-5.46-.37-.27,0-.4.16-.28.41l.78,1.7c.11.25,0,.45-.28.45H2c-.27,0-.36.17-.2.39.49.66.85,1.15,1.24,1.66.16.22.07.41-.2.42l-2.59.15c-.27,0-.35.2-.19.42A2.92,2.92,0,0,0,.79,81,36.76,36.76,0,0,0,18,86.15a6.39,6.39,0,0,0,2.39-.29c4.4-1.7,8.77-3.43,13.12-5.25,3-1.24,5.83-2.7,8.8-3.92a3.18,3.18,0,0,1,2.24.28c3.66,1.71,7.3,3.48,10.93,5.27,6.45,3.19,13.22,2.58,20,1.69,2.57-.33,5.12-.79,7.67-1.26,1.7-.32,2.71.09,3.13,2a9.75,9.75,0,0,0,1.37,2.71.56.56,0,0,0,.69.24l.07,0a.58.58,0,0,0,.34-.65c-.36-1.42-.71-2.86-1.13-4.55-.06-.26.08-.36.31-.23.69.4,1.35.76,2,1.19a9.16,9.16,0,0,1,1,1.09c1,1,2.32,1.89,3.3.59.5-.68,0-2.32-.44-3.42-.18-.52-.8-.89-1.25-1.45-.17-.21-.07-.33.18-.24l7.51,2.66c.26.09.35,0,.22-.25-1-1.67-1.81-3.06-2.8-4.75-.14-.23,0-.34.21-.25l6.91,2.57a.58.58,0,0,0,.69-.27l0,0a.64.64,0,0,0-.14-.75L103.2,77c-.2-.18-.15-.28.11-.24l5.19.84c.27,0,.54,0,.6-.13s-.08-.32-.31-.45l-2.19-1.2a.76.76,0,0,1-.42-.53c0-.16.23-.29.5-.29H112a.59.59,0,0,0,.57-.36.51.51,0,0,0-.38-.53L106.46,72c-.25-.09-.45-.26-.44-.38s.22-.24.49-.27l8.3-.77c.26,0,.29-.16.06-.29L112.56,69c-.24-.13-.21-.28,0-.33l2.31-.41c.26,0,.28-.18,0-.3Zm0,0" transform="translate(0 0)"/><path class="cls-2" d="M136.29,30.12v2.52h-6.78V49.91h-3.14V32.64H119.8V30.12Z" transform="translate(0 0)"/><path class="cls-2" d="M155.06,49.91H140.69V30.12h13.77v2.46H143.85v6h9.76V41h-9.76v6.47h11.21Z" transform="translate(0 0)"/><path class="cls-2" d="M174.7,30.12v2.52h-6.78V49.91h-3.14V32.64h-6.57V30.12Z" transform="translate(0 0)"/><path class="cls-2" d="M193.81,35.88a6.31,6.31,0,0,1-.28,1.84,5.36,5.36,0,0,1-.86,1.64,5.56,5.56,0,0,1-1.47,1.28,6.8,6.8,0,0,1-2.09.81l5.53,8.46h-3.57l-5-8.14h-3.81v8.14H179.1V30.12h7.56a10.58,10.58,0,0,1,3.07.4A6.47,6.47,0,0,1,192,31.66a4.76,4.76,0,0,1,1.37,1.81A6,6,0,0,1,193.81,35.88Zm-3.19,0a3.1,3.1,0,0,0-1.12-2.59,4.88,4.88,0,0,0-3.11-.89h-4.13V39.5h4.23a5.43,5.43,0,0,0,1.86-.28,3.71,3.71,0,0,0,1.29-.76,3,3,0,0,0,.74-1.14A4.11,4.11,0,0,0,190.62,35.9Z" transform="translate(0 0)"/><path class="cls-2" d="M208.16,30.12l7.44,19.79h-3.17l-2-5.56h-8.14l-2.06,5.56H197l7.48-19.79Zm-1.82,2.38L203,42h6.72Z" transform="translate(0 0)"/><path class="cls-2" d="M141.72,78.91V59.12h2V78.91Z" transform="translate(0 0)"/><path class="cls-2" d="M159.25,78.91v-8.4a7.93,7.93,0,0,0-.21-1.87,4.06,4.06,0,0,0-.69-1.5,3.1,3.1,0,0,0-1.24-1,4.48,4.48,0,0,0-1.86-.34,4.35,4.35,0,0,0-3.31,1.47,4.92,4.92,0,0,0-.95,1.6,5.66,5.66,0,0,0-.34,2v8h-1.94V66.79c0-.36,0-.69,0-1s0-.57,0-.8,0-.36,0-.41h1.76s0,.18,0,.43,0,.56,0,.88,0,.65,0,1,0,.57,0,.74h.05a6.27,6.27,0,0,1,2.2-2.46,6.58,6.58,0,0,1,5.58-.35A4.23,4.23,0,0,1,160,66a4.87,4.87,0,0,1,.88,1.83,8.88,8.88,0,0,1,.27,2.22v8.83Z" transform="translate(0 0)"/><path class="cls-2" d="M176.36,74.94a3.9,3.9,0,0,1-.39,1.77,3.68,3.68,0,0,1-1.15,1.34,5.55,5.55,0,0,1-1.85.85,9.52,9.52,0,0,1-2.5.3A13.06,13.06,0,0,1,168.2,79a6.12,6.12,0,0,1-1.78-.61,3.91,3.91,0,0,1-1.29-1.14,4.81,4.81,0,0,1-.76-1.76l1.8-.4a3.59,3.59,0,0,0,.56,1.34,2.81,2.81,0,0,0,.93.82,3.94,3.94,0,0,0,1.27.4,10.58,10.58,0,0,0,1.54.1,7.38,7.38,0,0,0,1.61-.16,4.08,4.08,0,0,0,1.3-.48,2.48,2.48,0,0,0,.85-.82,2.19,2.19,0,0,0,.31-1.2,1.83,1.83,0,0,0-.39-1.21,3.14,3.14,0,0,0-1-.77,7.6,7.6,0,0,0-1.51-.53c-.57-.14-1.17-.28-1.78-.41s-1.19-.3-1.77-.47a6.36,6.36,0,0,1-1.54-.68A3.61,3.61,0,0,1,165.4,70a2.92,2.92,0,0,1-.42-1.63,3.46,3.46,0,0,1,1.42-2.93,6.87,6.87,0,0,1,4.14-1.06,8.73,8.73,0,0,1,2,.21,5.22,5.22,0,0,1,1.63.63,4,4,0,0,1,1.21,1.11A3.94,3.94,0,0,1,176,67.9l-1.77.23a2.79,2.79,0,0,0-.46-1.14,2.57,2.57,0,0,0-.85-.72,3.33,3.33,0,0,0-1.11-.39,6.7,6.7,0,0,0-1.28-.12,5.08,5.08,0,0,0-2.81.64,2,2,0,0,0-.94,1.73,1.75,1.75,0,0,0,.32,1.08,2.53,2.53,0,0,0,.88.72,6.75,6.75,0,0,0,1.35.49l1.74.42c.64.14,1.27.31,1.9.48a7.07,7.07,0,0,1,1.7.72,3.71,3.71,0,0,1,1.22,1.14A3.09,3.09,0,0,1,176.36,74.94Z" transform="translate(0 0)"/><path class="cls-2" d="M183.08,79.14a3,3,0,0,1-2.25-.81,3.55,3.55,0,0,1-.76-2.49V66.09h-1.9V64.58h1.94l.62-3.3H182v3.3h3.27v1.51H182v9.42a2.37,2.37,0,0,0,.46,1.62,1.68,1.68,0,0,0,1.35.52,6,6,0,0,0,.81-.06,6.56,6.56,0,0,0,.84-.17v1.41c-.36.09-.75.17-1.15.23A8.2,8.2,0,0,1,183.08,79.14Z" transform="translate(0 0)"/><path class="cls-2" d="M200.54,79.05a3.2,3.2,0,0,1-1.18-.2,1.84,1.84,0,0,1-.78-.59,2.66,2.66,0,0,1-.45-1,7.2,7.2,0,0,1-.19-1.34h0a6.45,6.45,0,0,1-2.24,2.37,6.24,6.24,0,0,1-3.41.9,7.05,7.05,0,0,1-2-.27,4.19,4.19,0,0,1-1.54-.81,3.6,3.6,0,0,1-1-1.28,4.3,4.3,0,0,1-.33-1.73,4,4,0,0,1,.55-2.16,4.37,4.37,0,0,1,1.49-1.44,7.31,7.31,0,0,1,2.18-.81,13,13,0,0,1,2.63-.28l3.66-.06v-.77a3.77,3.77,0,0,0-1-2.93,4.19,4.19,0,0,0-2.86-.89,7.66,7.66,0,0,0-1.6.16,3.37,3.37,0,0,0-1.21.48,2.44,2.44,0,0,0-.82.87,3.9,3.9,0,0,0-.42,1.3l-2-.2a4.47,4.47,0,0,1,.57-1.62,4.06,4.06,0,0,1,1.16-1.29,5.52,5.52,0,0,1,1.81-.84,9.33,9.33,0,0,1,2.49-.3,6.22,6.22,0,0,1,4.29,1.32,4.82,4.82,0,0,1,1.47,3.8v5.87a4.27,4.27,0,0,0,.29,1.77,1.14,1.14,0,0,0,1.13.6,2.08,2.08,0,0,0,.46-.06l.45-.09v1.32a5.37,5.37,0,0,1-.8.15A7.44,7.44,0,0,1,200.54,79.05Zm-2.64-7.34-3.27.1a14.24,14.24,0,0,0-2,.16,5.81,5.81,0,0,0-1.68.51,3,3,0,0,0-1.14,1,2.74,2.74,0,0,0-.42,1.57,2.45,2.45,0,0,0,.75,1.9,3.42,3.42,0,0,0,2.37.69,5.44,5.44,0,0,0,2.25-.44,5.69,5.69,0,0,0,1.7-1.11,4.66,4.66,0,0,0,1.08-1.51,3.94,3.94,0,0,0,.37-1.64Z" transform="translate(0 0)"/><path class="cls-2" d="M204.79,78.91V58.49h1.93V78.91Z" transform="translate(0 0)"/><path class="cls-2" d="M211.38,78.91V58.49h1.93V78.91Z" transform="translate(0 0)"/></svg>