<svg id="Layer_1" data-name="Layer 1" xmlns="http://www.w3.org/2000/svg" xmlns:xlink="http://www.w3.org/1999/xlink" viewBox="0 0 131.09 104.04"><defs><style>.cls-1{fill:url(#Green);}.cls-2{fill:url(#Blue);}.cls-3{fill:#2c353d;}</style><linearGradient id="Green" x1="80.21" y1="22.11" x2="107.55" y2="22.11" gradientUnits="userSpaceOnUse"><stop offset="0" stop-color="#64c08a"/><stop offset="0.5" stop-color="#00a550"/><stop offset="1" stop-color="#00914c"/></linearGradient><linearGradient id="Blue" y1="53.36" x2="131.09" y2="53.36" gradientUnits="userSpaceOnUse"><stop offset="0" stop-color="#2bc4f3"/><stop offset="0.5" stop-color="#00aeee"/><stop offset="1" stop-color="#0095da"/></linearGradient></defs><title>ural</title><path class="cls-1" d="M80.21,19.79S89.74,11.66,87.1,0c0,0,27.06,16.28,18.92,44.21Z" transform="translate(0 0)"/><path class="cls-2" d="M0,3.3s32.55,9.24,42.23,46.63c0,0,15.4-11.88,33-8.8,0,0-44.44,14.52-58.95,62.91,0,0,37.83-58.95,114.81-50.37,0,0-14.51-13.42-25.07-9.46C106,44.21,78.75-3.3,0,3.3Z" transform="translate(0 0)"/><path class="cls-3" d="M61.54,83.4l3.9,8.36c.5,1.17,1,2.3,1.43,3.47h.06c.35-1,.73-2.16,1.22-3.56l3.06-8.27H73.9L69.79,93.48a38.13,38.13,0,0,1-3.68,7.46,5.56,5.56,0,0,1-4.46,2.42,4.21,4.21,0,0,1-1.42-.18l.26-2.06a4,4,0,0,0,.93.08c2,0,3.24-2,3.85-3.38a1.19,1.19,0,0,0-.09-1.19L58.65,83.4Z" transform="translate(0 0)"/><path class="cls-3" d="M78.91,83.63a28.6,28.6,0,0,1,4.86-.38c2.51,0,4.35.58,5.51,1.63A5.29,5.29,0,0,1,91,89a5.75,5.75,0,0,1-1.52,4.2,8.11,8.11,0,0,1-6,2.15,8.49,8.49,0,0,1-2-.17V103H78.91Zm2.53,9.47a8.34,8.34,0,0,0,2.1.2c3.06,0,4.92-1.48,4.92-4.19s-1.83-3.85-4.63-3.85a11.13,11.13,0,0,0-2.39.2Z" transform="translate(0 0)"/><path class="cls-3" d="M98.05,96.86,96,103H93.39l6.67-19.64h3.06L109.83,103h-2.72L105,96.86Zm6.44-2-1.92-5.66c-.44-1.28-.73-2.44-1-3.58h-.06c-.29,1.17-.61,2.36-1,3.56l-1.92,5.68Z" transform="translate(0 0)"/><path class="cls-3" d="M129.52,83.4V103H127V85.52h-6.5v6c0,4.25-.17,9-2.94,10.87a5.89,5.89,0,0,1-3,.93l-.32-2a4.38,4.38,0,0,0,2.07-1c1.58-1.54,1.72-5.36,1.72-8.51V83.4Z" transform="translate(0 0)"/></svg>