<!-- Generated by IcoMoon.io -->
<svg version="1.1" xmlns="http://www.w3.org/2000/svg" width="1024" height="1024" viewBox="0 0 1024 1024">
<title></title>
<g id="icomoon-ignore">
</g>
<path fill="#fff" d="M512 1024c242.318 0 438.915-196.597 438.915-438.915-242.318 0-438.915 196.552-438.915 438.915zM200.119 450.987c0 0.011 0 0.024 0 0.037 0 67.306 54.562 121.867 121.867 121.867 25.815 0 49.756-8.027 69.461-21.72l-0.401 0.263-0.96 9.281c0 67.331 54.582 121.913 121.913 121.913s121.913-54.582 121.913-121.913v0l-0.96-9.281c19.154 13.433 42.948 21.466 68.618 21.466 0.131 0 0.263 0 0.394-0.001h-0.020c0.081 0 0.177 0 0.274 0 67.179 0 121.639-54.459 121.639-121.639 0-48.32-28.176-90.061-68.993-109.688l-0.729-0.316c41.514-19.975 69.657-61.709 69.657-110.016 0-67.217-54.49-121.707-121.707-121.707-25.84 0-49.8 8.053-69.506 21.786l0.397-0.262 0.96-9.144c0-67.331-54.582-121.913-121.913-121.913s-121.913 54.582-121.913 121.913v0l0.96 9.144c-19.171-13.433-42.982-21.466-68.668-21.466-0.114 0-0.228 0-0.341 0h0.018c-0.096 0-0.209 0-0.322 0-67.179 0-121.639 54.459-121.639 121.639 0 48.339 28.198 90.093 69.041 109.711l0.73 0.316c-41.527 19.837-69.712 61.487-69.746 109.725v0.004zM512 219.322c0.007 0 0.015 0 0.023 0 67.344 0 121.936 54.592 121.936 121.936s-54.592 121.936-121.936 121.936c-67.344 0-121.936-54.592-121.936-121.936v0c0.026-67.325 54.59-121.897 121.909-121.936h0.004zM73.085 585.085c0 242.318 196.597 438.915 438.915 438.915 0-242.363-196.597-438.915-438.915-438.915z"></path>
</svg>
