<svg id="Layer_1" data-name="Layer 1" xmlns="http://www.w3.org/2000/svg" viewBox="0 0 14.4 14.4"><title>painter-palette</title><path fill="#fff" d="M305.2,389a7.2,7.2,0,0,0,0,14.4,1.23,1.23,0,0,0,1.2-1.2,1,1,0,0,0-.32-.8,1.42,1.42,0,0,1-.32-.8,1.23,1.23,0,0,1,1.2-1.2h1.44a4,4,0,0,0,4-4c0-3.52-3.2-6.4-7.2-6.4Zm-4.4,7.2A1.2,1.2,0,1,1,302,395a1.23,1.23,0,0,1-1.2,1.2Zm2.4-3.2a1.2,1.2,0,1,1,1.2-1.2,1.23,1.23,0,0,1-1.2,1.2Zm4,0a1.2,1.2,0,1,1,1.2-1.2,1.23,1.23,0,0,1-1.2,1.2Zm2.4,3.2a1.2,1.2,0,1,1,1.2-1.2,1.23,1.23,0,0,1-1.2,1.2Zm0,0" transform="translate(-298 -389)"/></svg>