<svg id="Layer_1" data-name="Layer 1" xmlns="http://www.w3.org/2000/svg" viewBox="0 0 35.61 28.94"><defs><style>.cls-1{fill:#fff;}</style></defs><title>ico_tw</title><path class="cls-1" d="M32,10.74C32.43,21,24.76,32.47,11.2,32.47A20.69,20.69,0,0,1,0,29.19a14.67,14.67,0,0,0,10.82-3A7.32,7.32,0,0,1,4,21.09,7.3,7.3,0,0,0,7.29,21a7.31,7.31,0,0,1-5.86-7.25,7.37,7.37,0,0,0,3.31.91A7.32,7.32,0,0,1,2.48,4.87,20.72,20.72,0,0,0,17.54,12.5,7.31,7.31,0,0,1,30,5.84a14.66,14.66,0,0,0,4.64-1.78,7.35,7.35,0,0,1-3.21,4A14.15,14.15,0,0,0,35.61,7,14.91,14.91,0,0,1,32,10.74Z" transform="translate(0 -3.53)"/></svg>