<svg id="Layer_1" data-name="Layer 1" xmlns="http://www.w3.org/2000/svg" viewBox="0 0 36 20.35"><defs><style>.cls-1{fill:#fff;}</style></defs><title>ico_vk</title><path fill="#000" class="cls-1" d="M32.11,22.88C35,25.54,35.59,26.82,35.68,27c0,0,1.2,2.08-1.33,2.1l-4.79.07a4,4,0,0,1-2.4-.72c-1.8-1.23-3.49-4.4-4.8-4,0,0-1.35.43-1.31,3.29a1.4,1.4,0,0,1-.28.95,1.67,1.67,0,0,1-1,.41H17.62c-4.74.29-8.92-4-8.92-4S4.12,20.38.11,11c-.26-.61,0-.91,0-.91A1.37,1.37,0,0,1,1.2,9.78l5.14,0a1.94,1.94,0,0,1,.82.33,1.41,1.41,0,0,1,.45.6,36.13,36.13,0,0,0,1.93,4c1.88,3.83,3.15,4.48,3.88,4.09,0,0,1-.58.75-5.2a5.41,5.41,0,0,0-.54-2.44A2.49,2.49,0,0,0,12,10.3c-.28,0,.19-.71.81-1a11.94,11.94,0,0,1,4.48-.44,10.09,10.09,0,0,1,2.53.24c1.78.42,1.18,2.06,1.18,6,0,1.27-.24,3,.68,3.61.39.26,1.36,0,3.76-4a34.33,34.33,0,0,0,2-4.18A1.12,1.12,0,0,1,28,9.92a1.3,1.3,0,0,1,.71-.11l5.4,0c1.63-.2,1.89.54,1.89.54.28.76-.6,2.54-2.81,5.46C29.5,20.56,29.11,20.12,32.11,22.88Z" transform="translate(0 -8.84)"/></svg>