<svg id="Layer_1" data-name="Layer 1" xmlns="http://www.w3.org/2000/svg" viewBox="0 0 36 22.16"><defs><style>.cls-1{fill:#fff;}</style></defs><title>ico_g</title><path class="cls-1" d="M11.08,29a11.08,11.08,0,1,1,7.78-19l-2.28,2a8.09,8.09,0,1,0-5.5,14c3.41,0,5.94-2.21,6.76-5.8H10.9l0-2.95H21.19l0,1.14C21.21,24.54,17,29,11.08,29Z" transform="translate(0 -6.86)"/><polygon class="cls-1" points="31.75 13.25 31.75 17.51 29.03 17.51 29.03 13.25 24.78 13.25 24.78 10.54 29.03 10.54 29.03 6.29 31.75 6.29 31.75 10.54 36 10.54 36 13.25 31.75 13.25"/></svg>