<svg id="Layer_1" data-name="Layer 1" xmlns="http://www.w3.org/2000/svg" viewBox="0 0 36 25.63"><defs><style>.cls-1{fill:#fff;}</style></defs><title>ico_mail</title><path class="cls-1" d="M33.94,4.3a7.71,7.71,0,0,1-.48.61q-6.87,6.91-13.73,13.82c-1.23,1.24-2.15,1.24-3.36,0Q9.53,11.83,2.68,4.91L2.13,4.3Z" transform="translate(-0.02 -4.3)"/><path class="cls-1" d="M0,6.87,10.5,17,0,27.71Z" transform="translate(-0.02 -4.3)"/><path class="cls-1" d="M2.06,29.93c3.56-3.64,7-7.17,10.5-10.74,1.59,1.55,2.88,3.41,5.4,3.45s3.85-1.79,5.48-3.36L33.85,29.93Z" transform="translate(-0.02 -4.3)"/><path class="cls-1" d="M36,27.83,25.58,17.16,36,7.07Z" transform="translate(-0.02 -4.3)"/></svg>