<svg id="Layer_1" data-name="Layer 1" xmlns="http://www.w3.org/2000/svg" viewBox="0 0 23.13 22.79"><defs><style>.cls-1{fill:#37b2f7;}</style></defs><title>Vector Smart Object</title><path class="cls-1" d="M229.75,79.94c-6.07-1.22-10.05-6.83-8.91-12.53a10.06,10.06,0,0,1,1.67-3.84,11.51,11.51,0,1,0,18.68,12A11.23,11.23,0,0,1,229.75,79.94Z" transform="translate(-218.69 -60.87)"/><path class="cls-1" d="M235,61.87c-5.26-2.24-11-.62-12.79,3.62s1,9.49,6.26,11.73,11,.61,12.8-3.62S240.27,64.11,235,61.87Zm4.2,8.91c-1.45,2.87-5.46,3.75-9,2s-5.14-5.53-3.69-8.39,5.46-3.75,9-2S240.66,67.92,239.21,70.78Z" transform="translate(-218.69 -60.87)"/><path class="cls-1" d="M235.35,63c-2.5-1.27-5.36-.63-6.4,1.41s.14,4.74,2.64,6S237,71.06,238,69,237.85,64.28,235.35,63Z" transform="translate(-218.69 -60.87)"/></svg>