<svg width="48" height="48" xmlns="http://www.w3.org/2000/svg">
 <title>Vector Smart Object6</title>

 <g>
  <title>background</title>
  <rect fill="none" id="canvas_background" height="50" width="50" y="-1" x="-1"/>
 </g>
 <g>
  <title>Layer 1</title>
  <path d="m36.7,46.8c-0.5,0 -1,-0.1 -1.5,-0.4l-11.2,-5.9l-11.2,5.9c-1.1,0.6 -2.4,0.5 -3.4,-0.3c-1,-0.7 -1.5,-1.9 -1.3,-3.1l2.1,-12.5l-9.1,-8.8c-1.3,-1.2 -1.3,-3.3 -0.1,-4.5c0.5,-0.5 1.1,-0.8 1.8,-0.9l12.6,-1.8l5.7,-11.5c0.8,-1.6 2.7,-2.2 4.3,-1.5c0.6,0.3 1.1,0.8 1.4,1.5l5.6,11.4l12.6,1.8c1.8,0.2 3,1.8 2.8,3.5c-0.1,0.7 -0.4,1.4 -0.9,1.9l-9.1,8.9l2.2,12.6c0.2,1.2 -0.3,2.4 -1.3,3.1c-0.6,0.4 -1.3,0.6 -2,0.6zm-12.8,-13.1c0.5,0 1,0.1 1.5,0.4l7,3.7l-1.4,-7.9c-0.2,-1 0.2,-2.1 0.9,-2.8l5.7,-5.5l-7.8,-1.1c-1,-0.2 -1.9,-0.8 -2.4,-1.8l-3.5,-7.1l-3.5,7.1c-0.5,0.9 -1.4,1.6 -2.4,1.8l-7.8,1.1l5.7,5.5c0.8,0.7 1.1,1.8 0.9,2.8l-1.3,7.8l7,-3.7c0.4,-0.2 0.9,-0.3 1.4,-0.3c0.1,0 0,0 0,0z" id="svg_1"/>
 </g>
</svg>