<svg width="48" height="48" xmlns="http://www.w3.org/2000/svg">
 <defs>
  <style>.cls-1{fill:none;}.cls-2{fill:#221f1f;}</style>
 </defs>
 <title>menu_reviews_grey</title>
 <g>
  <title>Layer 1</title>
  <path d="m36.514212,46.528522a3.34,3.34 0 0 1 -1.45,-0.36l-11.08,-5.85l-11.13,5.85a3.2,3.2 0 0 1 -3.33,-0.25a3.16,3.16 0 0 1 -1.25,-3.11l2.11,-12.36l-9,-8.74a3.17,3.17 0 0 1 -0.06,-4.48a3.14,3.14 0 0 1 1.81,-0.93l12.43,-1.81l5.55,-11.25a3.14,3.14 0 0 1 5.65,0l5.57,11.25l12.44,1.81a3.17,3.17 0 0 1 1.85,5.41l-9,8.76l2.11,12.37a3.14,3.14 0 0 1 -1.24,3.1a3.22,3.22 0 0 1 -1.98,0.59zm-12.66,-13a3.33,3.33 0 0 1 1.48,0.36l6.9,3.65l-1.31,-7.7a3.1,3.1 0 0 1 0.91,-2.81l5.59,-5.45l-7.72,-1.08a3.14,3.14 0 0 1 -2.39,-1.73l-3.46,-7l-3.46,7a3.16,3.16 0 0 1 -2.41,1.73l-7.7,1.12l5.59,5.45a3.1,3.1 0 0 1 0.91,2.81l-1.31,7.7l6.9,-3.65a3.25,3.25 0 0 1 1.61,-0.36l-0.13,-0.04z" class="cls-2" id="svg_1"/>
 </g>
</svg>