<svg width="48" height="48" xmlns="http://www.w3.org/2000/svg">
 <defs>
  <style>.cls-1{fill-rule:evenodd;}</style>
 </defs>
 <title>menu_team_black</title>
 <g>
  <title>background</title>
  <rect fill="none" id="canvas_background" height="50" width="50" y="-1" x="-1"/>
 </g>
 <g>
  <title>Layer 1</title>
  <g stroke="null" id="svg_3">
   <path stroke="null" id="svg_1" d="m24.371906,43.142879a29.468424,29.468424 0 0 1 -7.768002,-0.895507a17.681054,17.681054 0 0 1 -5.560473,-2.436612a9.371584,9.371584 0 0 1 -2.93643,-3.061384a6.539283,6.539283 0 0 1 -0.874681,-3.290467c0,-1.249544 0,-2.519915 0,-3.769459a0.208257,0.208257 0 0 0 -0.187432,-0.249909a15.702609,15.702609 0 0 1 -3.269641,-1.291196a7.955433,7.955433 0 0 1 -2.561566,-2.082574a5.643776,5.643776 0 0 1 -1.12459,-2.665695a7.351487,7.351487 0 0 1 0.270735,-2.93643a14.578019,14.578019 0 0 1 2.186703,-4.331754a27.53163,27.53163 0 0 1 7.601396,-7.039101a28.073099,28.073099 0 0 1 6.997449,-3.22799a23.47061,23.47061 0 0 1 4.456709,-0.895507a21.658771,21.658771 0 0 1 4.49836,0a26.344563,26.344563 0 0 1 10.412871,3.394596a28.531266,28.531266 0 0 1 6.45598,4.894049a20.513355,20.513355 0 0 1 3.748633,5.019004a9.871401,9.871401 0 0 1 1.187067,3.644505a5.560473,5.560473 0 0 1 -1.207893,4.269277a8.663508,8.663508 0 0 1 -3.08221,2.311657a15.140314,15.140314 0 0 1 -2.665695,0.97881a0.208257,0.208257 0 0 0 -0.187432,0.249909c0,1.145416 0,2.311657 0,3.477899a7.059926,7.059926 0 0 1 -2.436612,5.539647a13.578383,13.578383 0 0 1 -4.415057,2.707346a23.158224,23.158224 0 0 1 -5.268913,1.395325a25.386579,25.386579 0 0 1 -4.269277,0.29156zm-0.374863,-33.550269l-2.270006,0.187432a16.952153,16.952153 0 0 0 -3.66533,0.812204a22.179414,22.179414 0 0 0 -5.602124,2.728172a22.595929,22.595929 0 0 0 -6.101942,5.831208a8.330297,8.330297 0 0 0 -1.395325,2.707346c-0.208257,0.770552 -0.208257,1.041287 0.520644,1.603582a9.371584,9.371584 0 0 0 1.395325,0.812204a17.785183,17.785183 0 0 0 4.165148,1.249544a2.311657,2.311657 0 0 0 0.916333,0.104129c1.561931,-0.270735 3.144687,-0.562295 4.706618,-0.791378s3.769459,-0.520644 5.664602,-0.749727a13.286823,13.286823 0 0 1 2.228354,0c1.312022,0 2.624043,0.208257 3.915239,0.395689c2.082574,0.312386 4.269277,0.687249 6.393503,1.020461a4.769095,4.769095 0 0 0 1.95762,0.104129a23.199876,23.199876 0 0 0 4.165148,-1.27037a5.33139,5.33139 0 0 0 1.624408,-1.020461a1.020461,1.020461 0 0 0 0.374863,-0.999636c0,-0.14578 0,-0.312386 -0.104129,-0.478992a9.579841,9.579841 0 0 0 -1.374499,-2.624043a22.429323,22.429323 0 0 0 -4.269277,-4.49836a24.199511,24.199511 0 0 0 -5.914511,-3.498725a20.117666,20.117666 0 0 0 -7.330661,-1.624408zm-11.93315,23.012444a7.976259,7.976259 0 0 0 0,1.228719a2.353309,2.353309 0 0 0 0.853855,1.374499a9.871401,9.871401 0 0 0 3.22799,1.874317a21.637945,21.637945 0 0 0 6.414328,1.249544a26.573646,26.573646 0 0 0 5.747905,-0.312386a16.660593,16.660593 0 0 0 5.060655,-1.645234a6.830843,6.830843 0 0 0 2.082574,-1.561931a2.665695,2.665695 0 0 0 0.520644,-2.186703l-1.874317,-0.249909c-2.082574,-0.29156 -4.269277,-0.603946 -6.414328,-0.874681c-0.937158,-0.124954 -1.874317,-0.229083 -2.832301,-0.270735a24.178686,24.178686 0 0 0 -2.457437,0c-1.291196,0.104129 -2.561566,0.229083 -3.831936,0.395689s-3.08221,0.416515 -4.602489,0.645598l-1.895142,0.333212z" class="cls-1"/>
   <path stroke="null" id="svg_2" d="m23.955391,16.798316c0.499818,-0.395689 0.916333,-0.791378 1.374499,-1.145416a5.581299,5.581299 0 0 1 3.686156,-1.166242a5.747905,5.747905 0 0 1 2.93643,0.97881c0.478992,0.333212 0.916333,0.728901 1.395325,1.082939l0.249909,0.187432l0,0l-0.187432,0a19.576197,19.576197 0 0 0 -3.811111,0.541469a5.47717,5.47717 0 0 0 -2.457437,1.020461a1.561931,1.561931 0 0 0 -0.687249,1.187067a2.374135,2.374135 0 0 1 -4.748269,0a1.707711,1.707711 0 0 0 -0.687249,-1.207893a5.497996,5.497996 0 0 0 -2.082574,-0.937158a17.910138,17.910138 0 0 0 -3.790285,-0.416515l-0.583121,0l0.124954,-0.14578a7.122404,7.122404 0 0 1 3.748633,-2.082574a5.164784,5.164784 0 0 1 3.477899,0.520644a7.622221,7.622221 0 0 1 1.915968,1.41615l0.124954,0.166606z" class="cls-1"/>
  </g>
 </g>
</svg>