<svg width="48" height="48" xmlns="http://www.w3.org/2000/svg">
 <defs>
  <style>.cls-1{fill:#221f1f;fill-rule:evenodd;}</style>
 </defs>
 <title>menu_team_grey</title>
 <g>
  <title>background</title>
  <rect fill="none" id="canvas_background" height="50" width="50" y="-1" x="-1"/>
 </g>
 <g>
  <title>Layer 1</title>
  <g id="svg_3">
   <path d="m24.352587,43.122355a29.48,29.48 0 0 1 -7.77,-0.89a17.84,17.84 0 0 1 -5.59,-2.44a9.32,9.32 0 0 1 -2.93,-3.06a6.57,6.57 0 0 1 -0.88,-3.29l0,-3.77a0.21,0.21 0 0 0 -0.19,-0.25l0,0a15.81,15.81 0 0 1 -3.26,-1.29a8.1,8.1 0 0 1 -2.57,-2.08a5.73,5.73 0 0 1 -1.09,-2.67a7.3,7.3 0 0 1 0.27,-2.94a14.37,14.37 0 0 1 2.19,-4.33a27.57,27.57 0 0 1 7.6,-7a27.81,27.81 0 0 1 7,-3.23a22.52,22.52 0 0 1 4.45,-0.89a21.15,21.15 0 0 1 4.5,0a26.34,26.34 0 0 1 10.41,3.35a28.41,28.41 0 0 1 6.5,4.9a20.4,20.4 0 0 1 3.75,5a9.74,9.74 0 0 1 1.18,3.64a5.58,5.58 0 0 1 -1.2,4.27a8.78,8.78 0 0 1 -3.09,2.31a15,15 0 0 1 -2.66,1a0.21,0.21 0 0 0 -0.19,0.23l0,0l0,3.5a7.08,7.08 0 0 1 -2.43,5.54a13.63,13.63 0 0 1 -4.42,2.71a23,23 0 0 1 -5.27,1.39a24.74,24.74 0 0 1 -4.31,0.29zm-0.36,-33.55l-2.27,0.19a16.5,16.5 0 0 0 -3.67,0.81a22,22 0 0 0 -5.6,2.73a22.57,22.57 0 0 0 -6.1,5.83a8.13,8.13 0 0 0 -1.36,2.71c-0.21,0.77 -0.21,1 0.52,1.6a9.27,9.27 0 0 0 1.4,0.81a17.52,17.52 0 0 0 4.08,1.25a2.2,2.2 0 0 0 0.92,0.11c1.56,-0.27 3.14,-0.56 4.71,-0.79s3.77,-0.52 5.66,-0.75a11.87,11.87 0 0 1 2.23,0a28.61,28.61 0 0 1 3.91,0.39c2.09,0.32 4.27,0.69 6.4,1a5,5 0 0 0 2,0.11a24.39,24.39 0 0 0 4.17,-1.25a5.82,5.82 0 0 0 1.63,-1a1,1 0 0 0 0.37,-1a0.87,0.87 0 0 0 -0.1,-0.48a10,10 0 0 0 -1.38,-2.63a22.45,22.45 0 0 0 -4.27,-4.49a23.52,23.52 0 0 0 -5.91,-3.5a20,20 0 0 0 -7.34,-1.65zm-11.94,23a8.28,8.28 0 0 0 0,1.22a2.39,2.39 0 0 0 0.86,1.38a9.76,9.76 0 0 0 3.23,1.87a21.57,21.57 0 0 0 6.41,1.25a27,27 0 0 0 5.74,-0.3a16.79,16.79 0 0 0 5.06,-1.65a6.89,6.89 0 0 0 2.08,-1.56a2.68,2.68 0 0 0 0.56,-2.17l-1.87,-0.25c-2.09,-0.3 -4.27,-0.61 -6.42,-0.88c-0.93,-0.12 -1.87,-0.23 -2.83,-0.27s-1.64,0 -2.46,0c-1.29,0.1 -2.56,0.23 -3.83,0.4s-3.08,0.41 -4.6,0.64l-1.93,0.32z" class="cls-1" id="svg_1"/>
   <path d="m23.992587,16.782355c0.5,-0.4 0.91,-0.79 1.37,-1.15a5.51,5.51 0 0 1 6.56,-0.16c0.48,0.33 0.92,0.72 1.4,1.08l0.25,0.19l-0.19,0a18.81,18.81 0 0 0 -3.81,0.54a5.27,5.27 0 0 0 -2.46,1a1.56,1.56 0 0 0 -0.69,1.18a2.37,2.37 0 1 1 -4.74,0l0,0a1.69,1.69 0 0 0 -0.69,-1.2a5.37,5.37 0 0 0 -2.08,-0.94a18.65,18.65 0 0 0 -3.79,-0.42l-0.59,0l0.13,-0.14a7,7 0 0 1 3.75,-2.09a5.11,5.11 0 0 1 3.47,0.53a7.38,7.38 0 0 1 1.92,1.41l0.19,0.17z" class="cls-1" id="svg_2"/>
  </g>
 </g>
</svg>