<svg width="48" height="48" xmlns="http://www.w3.org/2000/svg">
 <defs>
  <style>.cls-1{fill:none;}.cls-2{fill:#1c5bc3;fill-rule:evenodd;}</style>
 </defs>
 <title>menu_team_blue</title>
 <g>
  <title>Layer 1</title>
  <g stroke="null" id="svg_3">
   <path stroke="null" d="m24.357346,43.127287a29.48,29.48 0 0 1 -7.77,-0.89a17.72,17.72 0 0 1 -5.6,-2.44a9.32,9.32 0 0 1 -2.93,-3.06a6.57,6.57 0 0 1 -0.88,-3.29l0,-3.77a0.21,0.21 0 0 0 -0.16,-0.25l-0.03,0a15.81,15.81 0 0 1 -3.26,-1.29a8.1,8.1 0 0 1 -2.57,-2.08a5.71,5.71 0 0 1 -1.08,-2.67a7.3,7.3 0 0 1 0.27,-2.94a14.49,14.49 0 0 1 2.19,-4.33a27.58,27.58 0 0 1 7.6,-7a28.16,28.16 0 0 1 7,-3.23a23.24,23.24 0 0 1 4.45,-0.9a21.15,21.15 0 0 1 4.5,0a26.44,26.44 0 0 1 10.41,3.36a28.6,28.6 0 0 1 6.49,4.9a20.51,20.51 0 0 1 3.75,5a9.74,9.74 0 0 1 1.18,3.64a5.57,5.57 0 0 1 -1.2,4.27a8.69,8.69 0 0 1 -3.09,2.31a14.61,14.61 0 0 1 -2.66,1a0.21,0.21 0 0 0 -0.19,0.23l0,3.5a7.07,7.07 0 0 1 -2.43,5.54a13.63,13.63 0 0 1 -4.42,2.71a22.89,22.89 0 0 1 -5.27,1.39a24.39,24.39 0 0 1 -4.3,0.29zm-0.37,-33.55l-2.27,0.19a17.07,17.07 0 0 0 -3.67,0.81a22.19,22.19 0 0 0 -5.6,2.73a22.57,22.57 0 0 0 -6.1,5.83a8.42,8.42 0 0 0 -1.36,2.71c-0.21,0.77 -0.21,1 0.52,1.6a9.27,9.27 0 0 0 1.4,0.81a17.35,17.35 0 0 0 4.08,1.25a2.22,2.22 0 0 0 0.92,0.11c1.56,-0.27 3.14,-0.56 4.71,-0.79s3.77,-0.52 5.66,-0.75a11.87,11.87 0 0 1 2.23,0a28.45,28.45 0 0 1 3.91,0.39c2.09,0.32 4.27,0.69 6.4,1a4.8,4.8 0 0 0 2,0.11a23.23,23.23 0 0 0 4.17,-1.25a5.53,5.53 0 0 0 1.63,-1a1,1 0 0 0 0.37,-1a0.85,0.85 0 0 0 -0.1,-0.48a9.73,9.73 0 0 0 -1.38,-2.63a22.17,22.17 0 0 0 -4.27,-4.49a23.82,23.82 0 0 0 -5.91,-3.5a20.14,20.14 0 0 0 -7.34,-1.65zm-11.94,23a8.28,8.28 0 0 0 0,1.22a2.37,2.37 0 0 0 0.86,1.38a9.76,9.76 0 0 0 3.23,1.87a21.57,21.57 0 0 0 6.41,1.25a26.37,26.37 0 0 0 5.75,-0.31a16.51,16.51 0 0 0 5.06,-1.65a6.77,6.77 0 0 0 2.08,-1.56a2.63,2.63 0 0 0 0.55,-2.16l-1.87,-0.25c-2.09,-0.3 -4.27,-0.61 -6.42,-0.88c-0.93,-0.12 -1.87,-0.23 -2.83,-0.27s-1.64,0 -2.46,0c-1.29,0.1 -2.56,0.23 -3.83,0.4s-3.08,0.41 -4.6,0.64l-1.93,0.32z" class="cls-2" id="svg_1"/>
   <path stroke="null" d="m23.987346,16.787287c0.5,-0.4 0.91,-0.79 1.37,-1.15a5.57,5.57 0 0 1 3.63,-1.16a5.7,5.7 0 0 1 2.93,1c0.48,0.33 0.92,0.72 1.4,1.08l0.25,0.19l-0.19,0a18.91,18.91 0 0 0 -3.81,0.54a5.41,5.41 0 0 0 -2.46,1a1.57,1.57 0 0 0 -0.69,1.18a2.37,2.37 0 1 1 -4.74,0a1.69,1.69 0 0 0 -0.69,-1.2a5.37,5.37 0 0 0 -2.08,-0.94a18.65,18.65 0 0 0 -3.79,-0.42l-0.59,0l0.13,-0.14a7.09,7.09 0 0 1 3.75,-2.09a5.17,5.17 0 0 1 3.47,0.53a7.38,7.38 0 0 1 1.92,1.41l0.19,0.17z" class="cls-2" id="svg_2"/>
  </g>
 </g>
</svg>