<svg width="48" height="48" xmlns="http://www.w3.org/2000/svg">
 <defs>
  <style>.cls-1{fill:#1c5bc3;}</style>
 </defs>
 <title>menu_reviews_blue</title>
 <g>
  <title>background</title>
  <rect fill="none" id="canvas_background" height="50" width="50" y="-1" x="-1"/>
 </g>
 <g>
  <title>Layer 1</title>
  <path stroke="null" id="svg_1" d="m36.533217,46.529039a3.292696,3.292696 0 0 1 -1.456385,-0.358819l-11.123404,-5.846647l-11.08119,5.846647a3.187161,3.187161 0 0 1 -3.33491,-0.253284a3.144947,3.144947 0 0 1 -1.245315,-3.102733l2.110703,-12.368718l-9.033808,-8.73831a3.166054,3.166054 0 0 1 1.751883,-5.403399l12.432039,-1.815204l5.572255,-11.250046a3.144947,3.144947 0 0 1 5.656683,0l5.572255,11.250046l12.432039,1.815204a3.166054,3.166054 0 0 1 1.857418,5.403399l-8.991594,8.759417l2.110703,12.368718a3.144947,3.144947 0 0 1 -1.245315,3.102733a3.229375,3.229375 0 0 1 -1.984061,0.590997zm-12.664217,-12.959715a3.313803,3.313803 0 0 1 1.477492,0.358819l6.901998,3.651516l-1.308636,-7.704065a3.102733,3.102733 0 0 1 0.907602,-2.807235l5.593362,-5.445613l-7.725172,-1.118672a3.166054,3.166054 0 0 1 -2.385094,-1.730776l-3.461553,-7.007533l-3.461553,7.007533a3.166054,3.166054 0 0 1 -2.385094,1.730776l-7.725172,1.118672l5.593362,5.445613a3.102733,3.102733 0 0 1 0.907602,2.807235l-1.308636,7.704065l6.901998,-3.651516a3.313803,3.313803 0 0 1 1.56192,-0.358819l-0.084428,0z" class="cls-1"/>
 </g>
</svg>