<svg id="Layer_1" data-name="Layer 1" xmlns="http://www.w3.org/2000/svg" viewBox="0 0 44.48 75.11"><defs><style>.cls-1{fill:#231f20;}.cls-2{fill:#37b2f7;}</style></defs><title>Vector Smart Object</title><path class="cls-1" d="M42.42,191.67l2.71-7.87h2.69l2.72,7.87H48.4L48,190.26H45l-.41,1.41Zm3-2.94h2.13l-.8-2.6-.1-.38c0-.17-.1-.4-.16-.67-.05.19-.1.37-.14.55s-.09.34-.14.5Z" transform="translate(-42.42 -131.87)"/><path class="cls-1" d="M64.06,191.67V183.8h2.16v7.87Z" transform="translate(-42.42 -131.87)"/><path class="cls-1" d="M80.67,191.67V183.8h2.24a9.37,9.37,0,0,1,1.83.12,2.4,2.4,0,0,1,.9.41,2.1,2.1,0,0,1,.65.82,2.64,2.64,0,0,1,.23,1.1,2.34,2.34,0,0,1-.45,1.49,2.23,2.23,0,0,1-1.31.76l2.14,3.17H84.48l-1.8-3.08v3.08Zm2-4.15h.39a1.72,1.72,0,0,0,1-.24.85.85,0,0,0,.32-.74,1,1,0,0,0-.3-.84,1.63,1.63,0,0,0-1-.25h-.43Z" transform="translate(-42.42 -131.87)"/><path class="cls-1" d="M44.36,203.14v3.53h-.91V198.8H45.1a6.41,6.41,0,0,1,1.27.09,1.92,1.92,0,0,1,.71.31,1.72,1.72,0,0,1,.59.73,2.51,2.51,0,0,1,.21,1,2.46,2.46,0,0,1-.21,1,1.75,1.75,0,0,1-.59.74,1.94,1.94,0,0,1-.7.31,6.53,6.53,0,0,1-1.28.09h-.74Zm0-.85h.48a3.28,3.28,0,0,0,1.62-.28,1.13,1.13,0,0,0,.41-1,1.24,1.24,0,0,0-.42-1.06,3,3,0,0,0-1.61-.3h-.48Z" transform="translate(-42.42 -131.87)"/><path class="cls-1" d="M50.42,206.67V198.8h.94v7h3v.9Z" transform="translate(-42.42 -131.87)"/><path class="cls-1" d="M59.31,198.49l3.58,8.18h-1l-1-2.42H57.78l-1,2.42h-1Zm0,2.07-1.25,2.89h2.5Z" transform="translate(-42.42 -131.87)"/><path class="cls-1" d="M65.09,206.67v-8.18l5.75,6.29v-6h.89V207L66,200.76v5.91Z" transform="translate(-42.42 -131.87)"/><path class="cls-1" d="M75,206.67V198.8h4.14v.86H75.93v2.25h3.21v.87H75.93v3h3.21v.87Z" transform="translate(-42.42 -131.87)"/><path class="cls-1" d="M83.49,206.67v-7H81.26v-.89h5.39v.89H84.43v7Z" transform="translate(-42.42 -131.87)"/><circle class="cls-1" cx="14.33" cy="55.88" r="1.54"/><circle class="cls-1" cx="30.91" cy="55.88" r="1.54"/><path class="cls-2" d="M63.8,168.27c-11.57-2.33-19.19-13-17-23.91A18.93,18.93,0,0,1,50,137,22,22,0,1,0,85.65,160,21.44,21.44,0,0,1,63.8,168.27Z" transform="translate(-42.42 -131.87)"/><path class="cls-2" d="M73.84,133.79c-10-4.28-21-1.18-24.42,6.9s1.92,18.11,12,22.38,21,1.19,24.42-6.9S83.89,138.06,73.84,133.79Zm8,17c-2.77,5.47-10.42,7.15-17.09,3.77s-9.83-10.55-7.06-16,10.43-7.16,17.1-3.77S84.63,145.33,81.86,150.8Z" transform="translate(-42.42 -131.87)"/><path class="cls-2" d="M74.5,136c-4.77-2.42-10.25-1.21-12.23,2.7s.28,9,5,11.46,10.24,1.21,12.22-2.7S79.27,138.38,74.5,136Z" transform="translate(-42.42 -131.87)"/></svg>