<?xml version="1.0" encoding="utf-8"?>
<!-- Generator: Adobe Illustrator 23.0.6, SVG Export Plug-In . SVG Version: 6.00 Build 0)  -->
<svg version="1.1" id="Layer_1" xmlns="http://www.w3.org/2000/svg" xmlns:xlink="http://www.w3.org/1999/xlink" x="0px" y="0px"
	 viewBox="0 0 76.2 23.2" style="enable-background:new 0 0 76.2 23.2;" xml:space="preserve">
<style type="text/css">
	.st0{fill:#FFFFFF;}
</style>
<title>main_logo</title>
<path class="st0" d="M31.7,7.9L34.4,0h2.7l2.7,7.9h-2.1l-0.4-1.4h-3l-0.4,1.4L31.7,7.9z M34.7,4.9h2.1l-0.8-2.6L36,1.9
	c0-0.2-0.1-0.4-0.2-0.7c-0.1,0.2-0.1,0.4-0.1,0.5s-0.1,0.3-0.1,0.5L34.7,4.9z"/>
<path class="st0" d="M53.4,7.9V0h2.2v7.9H53.4z"/>
<path class="st0" d="M70,7.9V0h2.2c0.6,0,1.2,0,1.8,0.1c0.3,0.1,0.6,0.2,0.9,0.4c0.3,0.2,0.5,0.5,0.6,0.8c0.2,0.3,0.2,0.7,0.2,1.1
	c0,0.5-0.1,1.1-0.5,1.5c-0.3,0.4-0.8,0.7-1.3,0.8l2.1,3.2h-2.4L72,4.8v3.1H70z M72,3.7h0.4c0.4,0,0.7-0.1,1-0.2
	c0.2-0.2,0.3-0.5,0.3-0.7c0-0.3-0.1-0.6-0.3-0.8c-0.3-0.2-0.6-0.3-1-0.3H72L72,3.7z"/>
<path class="st0" d="M33.7,19.3v3.5h-0.9V15h1.6c0.4,0,0.9,0,1.3,0.1c0.3,0.1,0.5,0.2,0.7,0.3c0.3,0.2,0.5,0.4,0.6,0.7
	c0.1,0.3,0.2,0.7,0.2,1c0,0.3-0.1,0.7-0.2,1c-0.1,0.3-0.3,0.6-0.6,0.7c-0.2,0.1-0.4,0.3-0.7,0.3c-0.4,0.1-0.9,0.1-1.3,0.1L33.7,19.3
	L33.7,19.3z M33.7,18.5h0.5c0.6,0,1.1-0.1,1.6-0.3c0.3-0.2,0.5-0.6,0.4-1c0-0.4-0.1-0.8-0.4-1.1c-0.5-0.2-1.1-0.4-1.6-0.3h-0.5V18.5
	z"/>
<path class="st0" d="M39.7,22.9V15h0.9v7h3v0.9L39.7,22.9z"/>
<path class="st0" d="M48.6,14.7l3.6,8.2h-1l-1-2.4h-3.1l-1,2.4h-1L48.6,14.7z M48.6,16.8l-1.3,2.9h2.5L48.6,16.8z"/>
<path class="st0" d="M54.4,22.9v-8.2l5.8,6.3v-6H61v8.2L55.3,17v5.9H54.4z"/>
<path class="st0" d="M64.3,22.9V15h4.1v0.9h-3.2v2.3h3.2V19h-3.2v3h3.2v0.9L64.3,22.9z"/>
<path class="st0" d="M72.8,22.9v-7h-2.2V15H76v0.9h-2.2v7L72.8,22.9z"/>
<circle class="st0" cx="46.1" cy="4" r="1.5"/>
<circle class="st0" cx="62.7" cy="4" r="1.5"/>
<path class="st0" d="M11.1,19.1C5,17.9,1,12.3,2.1,6.6C2.4,5.2,3,3.9,3.8,2.8C-0.9,7-1.3,14.3,3,19c4.3,4.7,11.5,5.1,16.3,0.9
	c1.5-1.4,2.7-3.1,3.3-5.1C19.9,18.4,15.4,20.1,11.1,19.1z"/>
<path class="st0" d="M16.3,1.1c-5.3-2.2-11-0.6-12.8,3.6s1,9.5,6.3,11.7s11,0.6,12.8-3.6S21.6,3.3,16.3,1.1z M20.5,10
	c-1.4,2.9-5.5,3.8-9,2S6.4,6.5,7.8,3.6s5.5-3.8,9-2S22,7.1,20.5,10L20.5,10z"/>
<path class="st0" d="M16.7,2.2c-2.5-1.3-5.4-0.6-6.4,1.4c-1,2,0.1,4.7,2.6,6s5.4,0.6,6.4-1.4S19.2,3.5,16.7,2.2z"/>
</svg>
