<svg id="Layer_1" data-name="Layer 1" xmlns="http://www.w3.org/2000/svg" viewBox="0 0 35.93 29.2"><title>s_twitter</title><path d="M32.29,10.67C32.75,21,25,32.6,11.33,32.6A20.84,20.84,0,0,1,0,29.29,14.82,14.82,0,0,0,11,26.23a7.37,7.37,0,0,1-6.89-5.11A7.43,7.43,0,0,0,7.39,21a7.38,7.38,0,0,1-5.91-7.32,7.37,7.37,0,0,0,3.34.92A7.38,7.38,0,0,1,2.54,4.75a20.91,20.91,0,0,0,15.19,7.7A7.37,7.37,0,0,1,30.29,5.73,14.81,14.81,0,0,0,35,3.94,7.4,7.4,0,0,1,31.73,8,15,15,0,0,0,36,6.86,14.77,14.77,0,0,1,32.29,10.67Z" transform="translate(-0.04 -3.4)"/></svg>