<svg id="Layer_1" data-name="Layer 1" xmlns="http://www.w3.org/2000/svg" viewBox="0 0 36 20.35"><title>s_vk</title><path d="M32.11,21.87c2.88,2.65,3.48,3.94,3.57,4.1,0,0,1.2,2.08-1.33,2.1l-4.79.07a4,4,0,0,1-2.4-.72c-1.8-1.23-3.49-4.4-4.8-4,0,0-1.35.43-1.31,3.29a1.39,1.39,0,0,1-.28.94,1.6,1.6,0,0,1-1,.41H17.62c-4.74.3-8.92-4-8.92-4S4.12,19.36.11,10c-.26-.61,0-.91,0-.91A1.37,1.37,0,0,1,1.2,8.76l5.14,0a2,2,0,0,1,.82.34,1.34,1.34,0,0,1,.45.59,36.13,36.13,0,0,0,1.93,4c1.88,3.83,3.15,4.48,3.88,4.09,0,0,1-.58.75-5.2a5.39,5.39,0,0,0-.54-2.43,2.46,2.46,0,0,0-1.6-.8c-.28,0,.19-.71.81-1a11.69,11.69,0,0,1,4.48-.45,10.09,10.09,0,0,1,2.53.24c1.78.43,1.18,2.06,1.18,6,0,1.26-.24,3,.68,3.6.39.26,1.36,0,3.76-4a33.47,33.47,0,0,0,2-4.18A1.07,1.07,0,0,1,28,8.91a1.25,1.25,0,0,1,.71-.12l5.4,0C35.69,8.55,36,9.3,36,9.3c.28.76-.6,2.54-2.81,5.45C29.5,19.55,29.11,19.1,32.11,21.87Z" transform="translate(0 -7.83)"/></svg>